<svg width="100" height="100" viewBox="0 0 100 100" fill="none" xmlns="http://www.w3.org/2000/svg">
<path d="M15.3318 22.0824L12.3569 23.1121L12.4802 33.8673L15.3318 32.2492V22.0824Z" fill="#FF0004"/>
<path d="M12.3569 20.1373C12.3569 20.1373 20.8238 16.2471 31.8077 13.73C42.7917 11.2128 51.2585 10.1831 51.2585 10.1831C51.2585 10.1831 60.0686 11.0984 71.3958 13.8444C82.7231 16.5904 90.5034 20.3661 90.5034 20.3661L87.7574 22.4256C87.7574 22.4256 77.2311 18.2679 70.4805 16.7048C63.7299 15.1417 51.2585 13.1579 51.2585 13.1579C51.2585 13.1579 37.9862 15.4462 32.6086 16.7048C27.2311 17.9634 12.3569 23.1121 12.3569 23.1121V20.1373Z" fill="#FF0004"/>
<path d="M87.6431 22.3112L90.6179 20.3661L90.3891 35.5835L87.6431 33.4096V22.3112Z" fill="#FF0004"/>
<path d="M85.3546 47.1396H88.3294C88.3294 47.1396 87.2997 57.2082 76.7733 71.5103C66.247 85.8124 51.4873 92.4485 51.4873 92.4485V88.7872C51.4873 88.7872 63.0434 85.1259 73.6841 70.3661C84.3248 55.6064 85.3546 47.1396 85.3546 47.1396Z" fill="#FF0004"/>
<path d="M87.6431 22.3112L90.6179 20.3661L90.3891 35.5835L87.6431 33.4096V22.3112Z" fill="#FF0004"/>
<path d="M87.6431 22.3112L90.6179 20.3661L90.3891 35.5835L87.6431 33.4096V22.3112Z" fill="#FF0004"/>
<path d="M87.6431 22.3112L90.6179 20.3661L90.3891 35.5835L87.6431 33.4096V22.3112Z" fill="#FF0004"/>
<path d="M87.6431 22.3112L90.6179 20.3661L90.3891 35.5835L87.6431 33.4096V22.3112Z" fill="#FF0004"/>
<path d="M76.5444 40.0458C76.5444 40.0458 82.3797 42.9062 83.8671 43.7071C85.3545 44.508 86.8419 45.5378 87.6428 46.1098C88.4437 46.6819 88.3293 47.1396 88.3293 47.1396H85.3545L76.5444 40.0458Z" fill="#FF0004"/>
<path d="M85.3546 47.1396H88.3294C88.3294 47.1396 87.2997 57.2082 76.7733 71.5103C66.247 85.8124 51.4873 92.4485 51.4873 92.4485V88.7872C51.4873 88.7872 63.0434 85.1259 73.6841 70.3661C84.3248 55.6064 85.3546 47.1396 85.3546 47.1396Z" fill="#FF0004"/>
<path d="M19.2219 51.8307H16.4759C16.4759 51.8307 15.675 57.2082 26.2013 71.5103C36.7276 85.8124 51.4873 92.4485 51.4873 92.4485V88.7872C51.4873 88.7872 39.9313 85.1259 29.2905 70.3661C18.6498 55.6064 19.2219 51.8307 19.2219 51.8307Z" fill="#FF0004"/>
<path d="M68.7642 73.5698L65.5605 82.2654L51.8305 89.3593L51.144 88.6728L68.7642 73.5698Z" fill="#FF0004"/>
<path d="M8.00937 40.9611C12.0683 36.8288 13.9607 35.9435 18.4213 33.8673C19.4324 33.3966 21.0529 32.7579 21.0529 32.7579L1.60205 49.8856C1.60205 49.8856 5.00285 44.022 8.00937 40.9611Z" fill="#ACADB1"/>
<path d="M21.2817 34.4394C21.2817 34.4394 23.0872 36.4346 24.4853 37.4142C26.6668 38.9428 30.7783 40.0458 30.7783 40.0458L1.60205 49.8856C1.60205 49.8856 7.92638 43.2009 12.4716 39.4737C16.4599 36.2032 21.2817 34.4394 21.2817 34.4394Z" fill="#2B3034"/>
<path d="M32.952 23.5698C39.4003 20.8526 50.2289 18.6499 50.2289 18.6499C50.2289 18.6499 57.1342 19.4168 61.4417 20.4805C66.4493 21.7171 73.6843 24.9428 73.6843 24.9428C73.6843 24.9428 77.0232 26.7245 79.0619 28.032C80.9507 29.2435 83.753 31.3501 83.753 31.3501L79.0619 30.8924C79.0619 30.8924 86.4891 36.4796 90.6179 40.7323C93.9774 44.1924 98.5127 50.4577 98.5127 50.4577C98.5127 50.4577 95.0777 48.1124 92.9063 46.5675C85.0189 40.9563 81.8795 35.9098 73.3411 31.3501C66.5319 27.714 54.2335 24.4851 54.2335 24.4851L64.9887 24.2563L52.4028 21.5103C52.4028 21.5103 41.9944 23.6169 35.8125 26.3158C31.8825 28.0316 30.1488 28.8902 26.2015 31.5789C22.2541 34.2677 16.4761 36.7277 16.4761 36.7277L21.9681 31.8078L18.8788 31.4645C18.8788 31.4645 27.1486 26.0153 32.952 23.5698Z" fill="#9C9DA1"/>
<path d="M34.7828 31.1213C37.5986 29.5938 42.4487 28.032 42.4487 28.032C42.4487 28.032 40.2149 29.6865 39.5883 30.8924C38.9783 32.0666 39.6515 33.1201 38.9018 34.2105C38.1506 35.3034 37.2911 35.5968 36.0414 36.0412C33.4455 36.9641 29.062 35.0114 29.062 35.0114C29.062 35.0114 32.7346 32.2325 34.7828 31.1213Z" fill="#F66769"/>
<path d="M65.3319 37.9863C65.3319 37.9863 68.4925 40.0986 70.3662 41.6476C74.0202 44.6684 78.7186 50.4577 78.7186 50.4577C78.7186 50.4577 73.3047 58.7661 69.1077 63.5011C64.9143 68.232 57.3228 74.5995 57.3228 74.5995C57.3228 74.5995 62.4649 67.543 65.7896 63.0435C68.7687 59.0112 73.4555 52.746 73.4555 52.746C73.4555 52.746 71.1184 47.0011 69.1077 43.5927C67.7665 41.3192 65.3319 37.9863 65.3319 37.9863Z" fill="#575A5F"/>
<path d="M32.3799 54.0046L36.6133 55.6224C36.6133 55.6224 37.7405 61.6133 38.9016 65.3318C40.4774 70.3778 44.1648 77.8032 44.1648 77.8032C44.1648 77.8032 38.9256 71.8995 36.6133 67.2769C34.2364 62.5254 32.3799 54.0046 32.3799 54.0046Z" fill="#64686B"/>
<path d="M38.9014 41.8764C38.9014 41.8764 45.0595 45.3874 48.6268 48.1693C51.5208 50.4263 55.6062 54.4622 55.6062 54.4622L49.5421 52.6316L51.2583 63.6156C51.2583 63.6156 48.2366 55.8405 45.5375 51.2586C43.2597 47.3918 38.9014 41.8764 38.9014 41.8764Z" fill="#595C61"/>
<path d="M7.66602 49.0847C7.66602 49.0847 20.2695 46.3805 28.261 47.4828C34.8971 48.3982 42.7919 56.0641 42.7919 56.0641C42.7919 56.0641 36.0871 51.6936 31.2358 50.3433C27.5463 49.3162 25.3292 49.373 21.5104 49.0847C16.1192 48.6776 7.66602 49.0847 7.66602 49.0847Z" fill="#3A4147"/>
</svg>
