<svg width="700" height="100" viewBox="0 0 700 100" fill="none" xmlns="http://www.w3.org/2000/svg">
<path d="M184.5 77L197.5 68.5V77H184.5Z" fill="#FEFEFE"/>
<path d="M178 14H195L196.5 41.5L234 14H260.5L218 44.5L222 49.5L232.5 42.5L261.5 67L262 73H240L217 52.5L213 48L195 60.5L178 72V14Z" fill="#FEFEFE"/>
<rect x="274.5" y="20.5" width="69" height="45" rx="8.5" stroke="#FEFEFE" stroke-width="15"/>
<path d="M354 13H415.5C415.5 13 422.51 13.7101 426 16C428.907 17.9071 431.16 19.5997 433 23C436.066 28.6675 434.53 33.2406 433 39.5C431.941 43.8336 431.599 47.1563 428.5 50C425.219 53.0104 416.5 52.5 416.5 52.5L434.5 73H411.5L383.5 39.5H414V28.5L364.5 27.5C364.5 27.5 360.033 25.3231 358 23C355.23 19.8351 354 13 354 13Z" fill="#FEFEFE"/>
<rect x="360" y="39" width="18" height="34" fill="#FEFEFE"/>
<path d="M433.5 13.5H453.5L478.5 57L502.5 13.5H522.5L488.5 73.5H466.5L433.5 13.5Z" fill="#FEFEFE"/>
<rect x="527" y="13" width="18" height="60" fill="#FEFEFE"/>
<path d="M556 34V14H576L619.5 54V14H637V74H616.5L573 34V73H556V34Z" fill="#FEFEFE"/>
<path d="M184.12 89H183.16V87.32H180.04V89H179.08V83.96C179.08 83.728 179.16 83.532 179.32 83.372C179.488 83.204 179.688 83.12 179.92 83.12H184.12V89ZM183.16 86.48V83.96H180.04V87.2L180.76 86.48H183.16ZM200.075 88.16C200.075 88.384 199.991 88.58 199.823 88.748C199.655 88.916 199.459 89 199.235 89H195.035V84.8L195.875 83.96H195.035V83.12H199.235C199.459 83.12 199.655 83.204 199.823 83.372C199.991 83.54 200.075 83.736 200.075 83.96V88.16ZM199.115 88.16V83.96H195.995V88.88L196.715 88.16H199.115ZM216.812 88.988H215.852V84.572L216.212 83.972H215.672L214.196 87.32H213.5L212.072 83.972H211.532L211.892 84.572V88.988H210.932V83.12H212.648L213.836 85.928H213.956L215.144 83.12H216.812V88.988ZM228.691 89H227.731V83.12H228.691V89ZM244.648 88.988H242.968L240.688 84.008H240.208L240.568 84.608V88.988H239.608V83.108H241.3L243.568 88.088H244.048L243.688 87.488V83.108H244.648V88.988ZM271.766 86.48C271.766 86.704 271.682 86.9 271.514 87.068C271.346 87.236 271.15 87.32 270.926 87.32H267.686V89H266.726V84.8L267.566 83.96H266.726V83.12H270.926C271.15 83.12 271.346 83.204 271.514 83.372C271.682 83.54 271.766 83.736 271.766 83.96V86.48ZM270.806 86.48V83.96H267.686V87.2L268.406 86.48H270.806ZM287.545 89H286.585V87.32H283.465V89H282.505V83.96C282.505 83.728 282.585 83.532 282.745 83.372C282.913 83.204 283.113 83.12 283.345 83.12H287.545V89ZM286.585 86.48V83.96H283.465V87.2L284.185 86.48H286.585ZM303.501 88.988H301.821L299.541 84.008H299.061L299.421 84.608V88.988H298.461V83.108H300.153L302.421 88.088H302.901L302.541 87.488V83.108H303.501V88.988ZM318.616 89H314.416V84.8L315.256 83.96H314.416V83.12H318.616V83.96H315.376V86.36L316.096 85.64H318.616V86.48H315.376V88.16H318.616V89ZM333.376 89H329.176V83.12H330.136V88.16H332.416V87.32H333.376V89ZM362.121 83.12L360.801 89H359.181L358.041 84.692H357.921L356.781 89H355.161L353.841 83.12H354.921L355.881 88.184H356.121L357.501 83.12H358.461L359.841 88.184H360.081L361.041 83.12H362.121ZM373.338 89H372.378V83.12H373.338V89ZM387.675 83.96H385.935V89H384.975V83.96H383.235V83.12H387.675V83.96ZM402.614 89H401.654V86.48H398.534V89H397.574V83.12H398.534V86.36L399.254 85.64H401.654V83.12H402.614V89ZM430.031 83.12L427.367 85.604V85.724H428.891C429.123 85.724 429.319 85.808 429.479 85.976C429.647 86.136 429.731 86.332 429.731 86.564V89H428.771V86.48H425.651V89H424.691V83.12H425.651V86.324L428.843 83.12H430.031ZM445.392 88.16C445.392 88.392 445.308 88.592 445.14 88.76C444.98 88.92 444.784 89 444.552 89H441.192C440.96 89 440.76 88.92 440.592 88.76C440.432 88.592 440.352 88.392 440.352 88.16V83.96C440.352 83.728 440.432 83.532 440.592 83.372C440.76 83.204 440.96 83.12 441.192 83.12H444.552C444.784 83.12 444.98 83.204 445.14 83.372C445.308 83.532 445.392 83.728 445.392 83.96V88.16ZM444.432 88.16V83.96H441.312V88.16H444.432ZM461.29 88.988H459.61L457.33 84.008H456.85L457.21 84.608V88.988H456.25V83.108H457.942L460.21 88.088H460.69L460.33 87.488V83.108H461.29V88.988ZM477.486 83.12L475.242 89H473.682L471.486 83.12H472.566L474.366 88.184H474.606L476.406 83.12H477.486ZM488.641 89H487.681V83.12H488.641V89ZM504.598 88.988H502.918L500.638 84.008H500.158L500.518 84.608V88.988H499.558V83.108H501.25L503.518 88.088H503.998L503.638 87.488V83.108H504.598V88.988ZM530.635 88.16C530.635 88.392 530.551 88.592 530.383 88.76C530.223 88.92 530.027 89 529.795 89H526.435V88.16H529.675V86.48H527.275C527.043 86.48 526.843 86.4 526.675 86.24C526.515 86.072 526.435 85.872 526.435 85.64V83.96C526.435 83.728 526.515 83.532 526.675 83.372C526.843 83.204 527.043 83.12 527.275 83.12H530.635V83.96H527.395V85.64H529.795C530.027 85.64 530.223 85.724 530.383 85.892C530.551 86.052 530.635 86.248 530.635 86.48V88.16ZM545.518 89H541.318V84.8L542.158 83.96H541.318V83.12H545.518V83.96H542.278V86.36L542.998 85.64H545.518V86.48H542.278V88.16H545.518V89ZM561.058 88.16C561.058 88.392 560.974 88.592 560.806 88.76C560.646 88.92 560.45 89 560.218 89H556.858C556.626 89 556.426 88.92 556.258 88.76C556.098 88.592 556.018 88.392 556.018 88.16V83.96C556.018 83.728 556.098 83.532 556.258 83.372C556.426 83.204 556.626 83.12 556.858 83.12H560.218C560.45 83.12 560.646 83.204 560.806 83.372C560.974 83.532 561.058 83.728 561.058 83.96V84.8H560.098V83.96H556.978V88.16H560.098V87.32H561.058V88.16ZM576.663 89H575.703V88.28L574.983 89H572.463C572.231 89 572.031 88.92 571.863 88.76C571.703 88.592 571.623 88.392 571.623 88.16V83.12H572.583V88.16H575.703V83.12H576.663V89ZM592.739 89H591.515L589.019 86.48H591.659V83.96H588.539V89H587.579V84.788L588.419 83.96H587.579V83.12H591.779C592.003 83.12 592.199 83.204 592.367 83.372C592.535 83.54 592.619 83.736 592.619 83.96V86.24C592.619 86.88 592.339 87.2 591.779 87.2H591.059V87.332L592.739 89ZM604.201 89H603.241V83.12H604.201V89ZM618.538 83.96H616.798V89H615.838V83.96H614.098V83.12H618.538V83.96ZM633.237 86.48C633.237 86.712 633.153 86.912 632.985 87.08C632.825 87.24 632.629 87.32 632.397 87.32H631.197V89H630.237V87.32H629.037C628.805 87.32 628.605 87.24 628.437 87.08C628.277 86.912 628.197 86.712 628.197 86.48V83.12H629.157V86.48H632.277V83.12H633.237V86.48Z" fill="#FF0202"/>
<path d="M63.3318 22.0824L60.357 23.1121L60.4802 33.8673L63.3318 32.2492V22.0824Z" fill="#FF0004"/>
<path d="M60.357 20.1373C60.357 20.1373 68.8238 16.2471 79.8078 13.73C90.7918 11.2128 99.2586 10.1831 99.2586 10.1831C99.2586 10.1831 108.069 11.0984 119.396 13.8444C130.723 16.5904 138.503 20.3661 138.503 20.3661L135.757 22.4256C135.757 22.4256 125.231 18.2679 118.481 16.7048C111.73 15.1417 99.2586 13.1579 99.2586 13.1579C99.2586 13.1579 85.9863 15.4462 80.6087 16.7048C75.2311 17.9634 60.357 23.1121 60.357 23.1121V20.1373Z" fill="#FF0004"/>
<path d="M135.643 22.3112L138.618 20.3661L138.389 35.5835L135.643 33.4096V22.3112Z" fill="#FF0004"/>
<path d="M133.355 47.1396H136.33C136.33 47.1396 135.3 57.2082 124.773 71.5103C114.247 85.8124 99.4874 92.4485 99.4874 92.4485V88.7872C99.4874 88.7872 111.043 85.1259 121.684 70.3661C132.325 55.6064 133.355 47.1396 133.355 47.1396Z" fill="#FF0004"/>
<path d="M135.643 22.3112L138.618 20.3661L138.389 35.5835L135.643 33.4096V22.3112Z" fill="#FF0004"/>
<path d="M135.643 22.3112L138.618 20.3661L138.389 35.5835L135.643 33.4096V22.3112Z" fill="#FF0004"/>
<path d="M135.643 22.3112L138.618 20.3661L138.389 35.5835L135.643 33.4096V22.3112Z" fill="#FF0004"/>
<path d="M135.643 22.3112L138.618 20.3661L138.389 35.5835L135.643 33.4096V22.3112Z" fill="#FF0004"/>
<path d="M124.545 40.0458C124.545 40.0458 130.38 42.9062 131.867 43.7071C133.355 44.508 134.842 45.5378 135.643 46.1099C136.444 46.6819 136.33 47.1396 136.33 47.1396H133.355L124.545 40.0458Z" fill="#FF0004"/>
<path d="M133.355 47.1396H136.33C136.33 47.1396 135.3 57.2082 124.773 71.5103C114.247 85.8124 99.4874 92.4485 99.4874 92.4485V88.7872C99.4874 88.7872 111.043 85.1259 121.684 70.3661C132.325 55.6064 133.355 47.1396 133.355 47.1396Z" fill="#FF0004"/>
<path d="M67.2219 51.8307H64.4759C64.4759 51.8307 63.675 57.2082 74.2013 71.5103C84.7277 85.8124 99.4874 92.4485 99.4874 92.4485V88.7872C99.4874 88.7872 87.9313 85.1259 77.2906 70.3661C66.6499 55.6064 67.2219 51.8307 67.2219 51.8307Z" fill="#FF0004"/>
<path d="M116.764 73.5698L113.561 82.2654L99.8307 89.3593L99.1442 88.6728L116.764 73.5698Z" fill="#FF0004"/>
<path d="M56.0091 40.9611C60.0681 36.8288 61.9604 35.9435 66.421 33.8673C67.4322 33.3966 69.0526 32.7579 69.0526 32.7579L49.6018 49.8856C49.6018 49.8856 53.0026 44.022 56.0091 40.9611Z" fill="#ACADB1"/>
<path d="M69.2814 34.4394C69.2814 34.4394 71.0869 36.4346 72.4851 37.4142C74.6666 38.9428 78.778 40.0458 78.778 40.0458L49.6018 49.8856C49.6018 49.8856 55.9261 43.2009 60.4714 39.4737C64.4597 36.2032 69.2814 34.4394 69.2814 34.4394Z" fill="#2B3034"/>
<path d="M80.9519 23.5698C87.4002 20.8526 98.2288 18.6499 98.2288 18.6499C98.2288 18.6499 105.134 19.4168 109.442 20.4806C114.449 21.7171 121.684 24.9428 121.684 24.9428C121.684 24.9428 125.023 26.7245 127.062 28.032C128.951 29.2435 131.753 31.3501 131.753 31.3501L127.062 30.8925C127.062 30.8925 134.489 36.4796 138.618 40.7323C141.977 44.1925 146.513 50.4577 146.513 50.4577C146.513 50.4577 143.078 48.1124 140.906 46.5675C133.019 40.9563 129.879 35.9098 121.341 31.3501C114.532 27.714 102.233 24.4851 102.233 24.4851L112.989 24.2563L100.403 21.5103C100.403 21.5103 89.9943 23.6169 83.8123 26.3158C79.8824 28.0316 78.1487 28.8902 74.2014 31.5789C70.254 34.2677 64.476 36.7277 64.476 36.7277L69.9679 31.8078L66.8787 31.4645C66.8787 31.4645 75.1485 26.0153 80.9519 23.5698Z" fill="#9C9DA1"/>
<path d="M82.7826 31.1213C85.5984 29.5938 90.4485 28.032 90.4485 28.032C90.4485 28.032 88.2146 29.6865 87.5881 30.8925C86.978 32.0666 87.6512 33.1201 86.9016 34.2105C86.1503 35.3034 85.2908 35.5968 84.0412 36.0412C81.4453 36.9641 77.0618 35.0114 77.0618 35.0114C77.0618 35.0114 80.7343 32.2325 82.7826 31.1213Z" fill="#F66769"/>
<path d="M113.332 37.9863C113.332 37.9863 116.492 40.0986 118.366 41.6476C122.02 44.6684 126.719 50.4577 126.719 50.4577C126.719 50.4577 121.305 58.7661 117.108 63.5011C112.914 68.232 105.323 74.5995 105.323 74.5995C105.323 74.5995 110.465 67.543 113.789 63.0435C116.769 59.0112 121.455 52.746 121.455 52.746C121.455 52.746 119.118 47.0011 117.108 43.5927C115.766 41.3192 113.332 37.9863 113.332 37.9863Z" fill="#575A5F"/>
<path d="M80.3799 54.0046L84.6133 55.6224C84.6133 55.6224 85.7405 61.6133 86.9016 65.3318C88.4774 70.3778 92.1648 77.8032 92.1648 77.8032C92.1648 77.8032 86.9256 71.8995 84.6133 67.2769C82.2364 62.5254 80.3799 54.0046 80.3799 54.0046Z" fill="#64686B"/>
<path d="M86.9016 41.8764C86.9016 41.8764 93.0597 45.3874 96.627 48.1693C99.5211 50.4263 103.606 54.4622 103.606 54.4622L97.5423 52.6316L99.2586 63.6156C99.2586 63.6156 96.2369 55.8405 93.5378 51.2586C91.26 47.3918 86.9016 41.8764 86.9016 41.8764Z" fill="#595C61"/>
<path d="M55.6659 49.0847C55.6659 49.0847 68.2694 46.3805 76.2609 47.4828C82.897 48.3982 90.7918 56.0641 90.7918 56.0641C90.7918 56.0641 84.0869 51.6936 79.2357 50.3432C75.5462 49.3162 73.3291 49.373 69.5103 49.0847C64.1191 48.6776 55.6659 49.0847 55.6659 49.0847Z" fill="#3A4147"/>
</svg>
