<svg width="700" height="100" viewBox="0 0 700 100" fill="none" xmlns="http://www.w3.org/2000/svg">
<path d="M184.5 82L197.5 73.5V82H184.5Z" fill="#FEFEFE"/>
<path d="M178 19H195L196.5 46.5L234 19H260.5L218 49.5L222 54.5L232.5 47.5L261.5 72L262 78H240L217 57.5L213 53L195 65.5L178 77V19Z" fill="#FEFEFE"/>
<rect x="274.5" y="25.5" width="69" height="45" rx="8.5" stroke="#FEFEFE" stroke-width="15"/>
<path d="M354 18H415.5C415.5 18 422.51 18.7101 426 21C428.907 22.9071 431.16 24.5997 433 28C436.066 33.6675 434.53 38.2406 433 44.5C431.941 48.8336 431.599 52.1563 428.5 55C425.219 58.0104 416.5 57.5 416.5 57.5L434.5 78H411.5L383.5 44.5H414V33.5L364.5 32.5C364.5 32.5 360.033 30.3231 358 28C355.23 24.8351 354 18 354 18Z" fill="#FEFEFE"/>
<rect x="360" y="44" width="18" height="34" fill="#FEFEFE"/>
<path d="M433.5 18.5H453.5L478.5 62L502.5 18.5H522.5L488.5 78.5H466.5L433.5 18.5Z" fill="#FEFEFE"/>
<rect x="527" y="18" width="18" height="60" fill="#FEFEFE"/>
<path d="M556 39V19H576L619.5 59V19H637V79H616.5L573 39V78H556V39Z" fill="#FEFEFE"/>
<path d="M63.3318 22.0824L60.357 23.1121L60.4802 33.8673L63.3318 32.2492V22.0824Z" fill="#15A1DE"/>
<path d="M60.357 20.1373C60.357 20.1373 68.8238 16.2471 79.8078 13.73C90.7918 11.2128 99.2586 10.1831 99.2586 10.1831C99.2586 10.1831 108.069 11.0984 119.396 13.8444C130.723 16.5904 138.503 20.3661 138.503 20.3661L135.757 22.4256C135.757 22.4256 125.231 18.2679 118.481 16.7048C111.73 15.1417 99.2586 13.1579 99.2586 13.1579C99.2586 13.1579 85.9863 15.4462 80.6087 16.7048C75.2311 17.9634 60.357 23.1121 60.357 23.1121V20.1373Z" fill="#15A1DE"/>
<path d="M135.643 22.3112L138.618 20.3661L138.389 35.5835L135.643 33.4096V22.3112Z" fill="#15A1DE"/>
<path d="M133.355 47.1396H136.33C136.33 47.1396 135.3 57.2082 124.773 71.5103C114.247 85.8124 99.4874 92.4485 99.4874 92.4485V88.7872C99.4874 88.7872 111.043 85.1259 121.684 70.3661C132.325 55.6064 133.355 47.1396 133.355 47.1396Z" fill="#15A1DE"/>
<path d="M135.643 22.3112L138.618 20.3661L138.389 35.5835L135.643 33.4096V22.3112Z" fill="#15A1DE"/>
<path d="M135.643 22.3112L138.618 20.3661L138.389 35.5835L135.643 33.4096V22.3112Z" fill="#15A1DE"/>
<path d="M135.643 22.3112L138.618 20.3661L138.389 35.5835L135.643 33.4096V22.3112Z" fill="#15A1DE"/>
<path d="M135.643 22.3112L138.618 20.3661L138.389 35.5835L135.643 33.4096V22.3112Z" fill="#15A1DE"/>
<path d="M124.545 40.0458C124.545 40.0458 130.38 42.9062 131.867 43.7071C133.355 44.508 134.842 45.5378 135.643 46.1099C136.444 46.6819 136.33 47.1396 136.33 47.1396H133.355L124.545 40.0458Z" fill="#15A1DE"/>
<path d="M133.355 47.1396H136.33C136.33 47.1396 135.3 57.2082 124.773 71.5103C114.247 85.8124 99.4874 92.4485 99.4874 92.4485V88.7872C99.4874 88.7872 111.043 85.1259 121.684 70.3661C132.325 55.6064 133.355 47.1396 133.355 47.1396Z" fill="#15A1DE"/>
<path d="M67.2219 51.8307H64.4759C64.4759 51.8307 63.675 57.2082 74.2013 71.5103C84.7277 85.8124 99.4874 92.4485 99.4874 92.4485V88.7872C99.4874 88.7872 87.9313 85.1259 77.2906 70.3661C66.6499 55.6064 67.2219 51.8307 67.2219 51.8307Z" fill="#15A1DE"/>
<path d="M116.764 73.5698L113.561 82.2654L99.8307 89.3593L99.1442 88.6728L116.764 73.5698Z" fill="#15A1DE"/>
<path d="M56.0091 40.9611C60.0681 36.8288 61.9604 35.9435 66.421 33.8673C67.4322 33.3966 69.0526 32.7579 69.0526 32.7579L49.6018 49.8856C49.6018 49.8856 53.0026 44.022 56.0091 40.9611Z" fill="#ACADB1"/>
<path d="M69.2814 34.4394C69.2814 34.4394 71.0869 36.4346 72.4851 37.4142C74.6666 38.9428 78.778 40.0458 78.778 40.0458L49.6018 49.8856C49.6018 49.8856 55.9261 43.2009 60.4714 39.4737C64.4597 36.2032 69.2814 34.4394 69.2814 34.4394Z" fill="#2B3034"/>
<path d="M80.9519 23.5698C87.4002 20.8525 98.2288 18.6499 98.2288 18.6499C98.2288 18.6499 105.134 19.4168 109.442 20.4805C114.449 21.7171 121.684 24.9428 121.684 24.9428C121.684 24.9428 125.023 26.7245 127.062 28.032C128.951 29.2435 131.753 31.3501 131.753 31.3501L127.062 30.8924C127.062 30.8924 134.489 36.4796 138.618 40.7323C141.977 44.1924 146.513 50.4577 146.513 50.4577C146.513 50.4577 143.078 48.1123 140.906 46.5675C133.019 40.9563 129.879 35.9098 121.341 31.3501C114.532 27.7139 102.233 24.4851 102.233 24.4851L112.989 24.2563L100.403 21.5103C100.403 21.5103 89.9943 23.6169 83.8123 26.3158C79.8824 28.0316 78.1487 28.8901 74.2014 31.5789C70.254 34.2677 64.476 36.7277 64.476 36.7277L69.9679 31.8078L66.8787 31.4645C66.8787 31.4645 75.1485 26.0153 80.9519 23.5698Z" fill="#9C9DA1"/>
<path d="M82.7826 31.1213C85.5984 29.5938 90.4485 28.032 90.4485 28.032C90.4485 28.032 88.2146 29.6865 87.5881 30.8925C86.978 32.0666 87.6512 33.1201 86.9016 34.2105C86.1503 35.3034 85.2908 35.5968 84.0412 36.0412C81.4453 36.9641 77.0618 35.0114 77.0618 35.0114C77.0618 35.0114 80.7343 32.2325 82.7826 31.1213Z" fill="#64F3FF"/>
<path d="M113.332 37.9863C113.332 37.9863 116.492 40.0986 118.366 41.6476C122.02 44.6684 126.719 50.4577 126.719 50.4577C126.719 50.4577 121.305 58.7661 117.108 63.5011C112.914 68.232 105.323 74.5995 105.323 74.5995C105.323 74.5995 110.465 67.543 113.789 63.0435C116.769 59.0112 121.455 52.746 121.455 52.746C121.455 52.746 119.118 47.0011 117.108 43.5927C115.766 41.3192 113.332 37.9863 113.332 37.9863Z" fill="#575A5F"/>
<path d="M80.3799 54.0046L84.6133 55.6224C84.6133 55.6224 85.7405 61.6133 86.9016 65.3318C88.4774 70.3778 92.1648 77.8032 92.1648 77.8032C92.1648 77.8032 86.9256 71.8995 84.6133 67.2769C82.2364 62.5254 80.3799 54.0046 80.3799 54.0046Z" fill="#64686B"/>
<path d="M86.9016 41.8764C86.9016 41.8764 93.0597 45.3874 96.627 48.1693C99.5211 50.4263 103.606 54.4622 103.606 54.4622L97.5423 52.6316L99.2586 63.6156C99.2586 63.6156 96.2369 55.8405 93.5378 51.2586C91.26 47.3918 86.9016 41.8764 86.9016 41.8764Z" fill="#595C61"/>
<path d="M55.6659 49.0847C55.6659 49.0847 68.2694 46.3805 76.2609 47.4828C82.897 48.3982 90.7918 56.0641 90.7918 56.0641C90.7918 56.0641 84.0869 51.6936 79.2357 50.3432C75.5462 49.3162 73.3291 49.373 69.5103 49.0847C64.1191 48.6776 55.6659 49.0847 55.6659 49.0847Z" fill="#3A4147"/>
</svg>
