<svg width="437" height="437" viewBox="0 0 437 437" fill="none" xmlns="http://www.w3.org/2000/svg">
<path d="M67 96.5L54 101L54.5385 148L67 140.929V96.5Z" fill="#15A1DE"/>
<path d="M54 88C54 88 91 71 139 60C187 49 224 44.5 224 44.5C224 44.5 262.5 48.5 312 60.5C361.5 72.5 395.5 89 395.5 89L383.5 98C383.5 98 337.5 79.8308 308 73C278.5 66.1692 224 57.5 224 57.5C224 57.5 166 67.5 142.5 73C119 78.5 54 101 54 101V88Z" fill="#15A1DE"/>
<path d="M383 97.5L396 89L395 155.5L383 146V97.5Z" fill="#15A1DE"/>
<path d="M373 206H386C386 206 381.5 250 335.5 312.5C289.5 375 225 404 225 404V388C225 388 275.5 372 322 307.5C368.5 243 373 206 373 206Z" fill="#15A1DE"/>
<path d="M383 97.5L396 89L395 155.5L383 146V97.5Z" fill="#15A1DE"/>
<path d="M383 97.5L396 89L395 155.5L383 146V97.5Z" fill="#15A1DE"/>
<path d="M383 97.5L396 89L395 155.5L383 146V97.5Z" fill="#15A1DE"/>
<path d="M383 97.5L396 89L395 155.5L383 146V97.5Z" fill="#15A1DE"/>
<path d="M334.5 175C334.5 175 360 187.5 366.5 191C373 194.5 379.5 199 383 201.5C386.5 204 386 206 386 206H373L334.5 175Z" fill="#15A1DE"/>
<path d="M373 206H386C386 206 381.5 250 335.5 312.5C289.5 375 225 404 225 404V388C225 388 275.5 372 322 307.5C368.5 243 373 206 373 206Z" fill="#15A1DE"/>
<path d="M84 226.5H72C72 226.5 68.5 250 114.5 312.5C160.5 375 225 404 225 404V388C225 388 174.5 372 128 307.5C81.5 243 84 226.5 84 226.5Z" fill="#15A1DE"/>
<path d="M300.5 321.5L286.5 359.5L226.5 390.5L223.5 387.5L300.5 321.5Z" fill="#15A1DE"/>
<path d="M35 179C52.7375 160.942 61.0071 157.073 80.5 148C84.9186 145.943 92 143.152 92 143.152L7 218C7 218 21.8615 192.376 35 179Z" fill="#ACADB1"/>
<path d="M93 150.5C93 150.5 100.89 159.219 107 163.5C116.533 170.18 134.5 175 134.5 175L7 218C7 218 34.6373 188.788 54.5 172.5C71.929 158.208 93 150.5 93 150.5Z" fill="#2B3034"/>
<path d="M144 103C172.179 91.1257 219.5 81.5 219.5 81.5C219.5 81.5 249.676 84.8516 268.5 89.5C290.383 94.9038 322 109 322 109C322 109 336.591 116.786 345.5 122.5C353.754 127.794 366 137 366 137L345.5 135C345.5 135 377.957 159.416 396 178C410.681 193.121 430.5 220.5 430.5 220.5C430.5 220.5 415.489 210.251 406 203.5C371.532 178.979 357.813 156.926 320.5 137C290.744 121.11 237 107 237 107L284 106L229 94C229 94 183.515 103.206 156.5 115C139.326 122.498 131.75 126.25 114.5 138C97.25 149.75 72 160.5 72 160.5L96 139L82.5 137.5C82.5 137.5 118.639 113.687 144 103Z" fill="#9C9DA1"/>
<path d="M152 136C164.305 129.325 185.5 122.5 185.5 122.5C185.5 122.5 175.738 129.73 173 135C170.334 140.131 173.276 144.735 170 149.5C166.717 154.276 162.961 155.558 157.5 157.5C146.156 161.533 127 153 127 153C127 153 143.049 140.856 152 136Z" fill="#64F3FF"/>
<path d="M285.5 166C285.5 166 299.312 175.231 307.5 182C323.468 195.201 344 220.5 344 220.5C344 220.5 320.341 256.808 302 277.5C283.675 298.174 250.5 326 250.5 326C250.5 326 272.971 295.163 287.5 275.5C300.519 257.879 321 230.5 321 230.5C321 230.5 310.787 205.395 302 190.5C296.139 180.565 285.5 166 285.5 166Z" fill="#575A5F"/>
<path d="M141.5 236L160 243.07C160 243.07 164.926 269.25 170 285.5C176.886 307.551 193 340 193 340C193 340 170.105 314.201 160 294C149.613 273.236 141.5 236 141.5 236Z" fill="#64686B"/>
<path d="M170 183C170 183 196.911 198.343 212.5 210.5C225.147 220.363 243 238 243 238L216.5 230L224 278C224 278 210.795 244.023 199 224C189.046 207.102 170 183 170 183Z" fill="#595C61"/>
<path d="M33.5 214.5C33.5 214.5 88.5773 202.683 123.5 207.5C152.5 211.5 187 245 187 245C187 245 157.7 225.901 136.5 220C120.377 215.512 110.688 215.76 94 214.5C70.4403 212.721 33.5 214.5 33.5 214.5Z" fill="#3A4147"/>
</svg>
