<svg width="459" height="61" viewBox="0 0 459 61" fill="none" xmlns="http://www.w3.org/2000/svg">
<path d="M6 60L19 52V60H6Z" fill="#FEFEFE"/>
<path d="M0 1H17L18.5 28.5L56 1H82.5L40 31.5L44 36.5L54.5 29.5L83.5 54L84 60H62L39 39.5L35 35L17 47.5L0 59V1Z" fill="#FEFEFE"/>
<rect x="96.5" y="7.5" width="69" height="45" rx="8.5" stroke="#FEFEFE" stroke-width="15"/>
<path d="M176 0H237.5C237.5 0 244.51 0.710122 248 3C250.907 4.90715 253.16 6.59969 255 10C258.066 15.6675 256.53 20.2406 255 26.5C253.941 30.8336 253.599 34.1563 250.5 37C247.219 40.0104 238.5 39.5 238.5 39.5L256.5 60H233.5L205.5 26.5H236V15.5L186.5 14.5C186.5 14.5 182.033 12.3231 180 10C177.23 6.83512 176 0 176 0Z" fill="#FEFEFE"/>
<rect x="182" y="26" width="18" height="34" fill="#FEFEFE"/>
<path d="M255.5 0.5H275.5L300.5 44L324.5 0.5H344.5L310.5 60H288.5L255.5 0.5Z" fill="#FEFEFE"/>
<rect x="349" width="18" height="60" fill="#FEFEFE"/>
<path d="M378 21V1H398L441.5 41V1H459V61H438.5L395 21V60H378V21Z" fill="#FEFEFE"/>
</svg>
